Coordinates
version=1
nRows=31
nColumns=38
inDegrees=no

Units are S.I. units (second, meters, Newtons, ...)
If the header above contains a line with 'inDegrees', this indicates whether rotational values are in degrees (yes) or radians (no).

endheader
time	pelvis_tilt	pelvis_list	pelvis_rotation	pelvis_tx	pelvis_ty	pelvis_tz	hip_flexion_r	hip_adduction_r	hip_rotation_r	knee_angle_r	ankle_angle_r	subtalar_angle_r	mtp_angle_r	hip_flexion_l	hip_adduction_l	hip_rotation_l	knee_angle_l	ankle_angle_l	subtalar_angle_l	mtp_angle_l	lumbar_extension	lumbar_bending	lumbar_rotation	arm_flex_r	arm_add_r	arm_rot_r	elbow_flex_r	pro_sup_r	wrist_flex_r	wrist_dev_r	arm_flex_l	arm_add_l	arm_rot_l	elbow_flex_l	pro_sup_l	wrist_flex_l	wrist_dev_l
0.58	-3.11468	1.34235	-1.55844	0.846387	-0.221907	0.938839	0.239096	-0.0694461	-0.345674	0.159334	0.101808	0	0	-0.349218	0.0178075	-0.268984	0.196672	0.167586	0	0	-0.346861	-0.0311834	0.0378696	0.60446	-0.470826	0.096744	1.03822	1.5708	0	0	0.553727	-0.442704	0.141974	1.3033	1.09016	0	0
0.59	-3.11215	1.34682	-1.56216	0.847329	-0.21216	0.936486	0.211791	-0.0499559	-0.299124	0.0629194	0.0759063	0	0	-0.356858	0.0165445	-0.274318	0.197684	0.178648	0	0	-0.340959	-0.0321169	0.035987	0.608127	-0.475393	0.147973	1.03817	1.38641	0	0	0.554243	-0.444554	0.141098	1.30017	1.10374	0	0
0.6	-3.09707	1.35385	-1.57735	0.84799	-0.202111	0.933688	0.198507	-0.0418758	-0.272312	0.00170937	0.0638051	0	0	-0.362184	0.0185749	-0.275832	0.19749	0.188757	0	0	-0.331414	-0.0356592	0.0334592	0.610805	-0.475227	0.158467	1.03572	1.36506	0	0	0.554111	-0.44533	0.138438	1.29899	1.09984	0	0
0.61	-3.09027	1.35693	-1.58426	0.848359	-0.192332	0.930969	0.204069	-0.0376178	-0.261705	0	0.0618226	0	0	-0.369661	0.0225548	-0.270628	0.199558	0.196077	0	0	-0.326663	-0.0367895	0.0320413	0.6148	-0.468836	0.113134	1.02755	1.5708	0	0	0.556118	-0.444676	0.13865	1.29718	1.09804	0	0
0.62	-3.08552	1.3625	-1.58732	0.84877	-0.182126	0.928019	0.20879	-0.0346538	-0.264918	0	0.0656634	0	0	-0.369635	0.0187143	-0.282726	0.215053	0.21709	0	0	-0.317776	-0.035342	0.025757	0.615934	-0.48863	0.275344	1.06521	0.884596	0	0	0.552273	-0.450249	0.144185	1.30149	0.985517	0	0
0.63	-3.08231	1.35742	-1.58757	0.84876	-0.171309	0.926456	0.195899	-0.0317809	-0.264304	0	0.0623144	0	0	-0.394511	0.0197986	-0.26902	0.202604	0.217187	0	0	-0.320544	-0.0339792	0.0216196	0.620396	-0.488453	0.273806	1.05639	0.927437	0	0	0.547557	-0.438019	0.0777716	1.32262	0.93554	0	0
0.64	-3.08309	1.35739	-1.58304	0.848849	-0.159866	0.924433	0.184819	-0.0273162	-0.264758	0	0.0600115	0	0	-0.41007	0.0175943	-0.263192	0.1991	0.22255	0	0	-0.316115	-0.0314282	0.0172278	0.623065	-0.487518	0.272199	1.04715	0.967486	0	0	0.546918	-0.442406	0.130261	1.29885	1.00204	0	0
0.65	-3.07785	1.36137	-1.5815	0.848907	-0.14762	0.92243	0.165856	-0.0246485	-0.271879	0	0.0575319	0	0	-0.421926	0.0104998	-0.263429	0.197032	0.232586	0	0	-0.306603	-0.0311196	0.0128627	0.624095	-0.469415	0.135731	1.01006	1.5708	0	0	0.543804	-0.434592	0.116856	1.29274	1.11948	0	0
0.66	-3.08295	1.36096	-1.56985	0.848668	-0.136101	0.92052	0.167996	-0.0255176	-0.288177	0.031002	0.0644418	0	0	-0.433972	0.00483718	-0.259219	0.201568	0.240188	0	0	-0.3034	-0.0262814	0.00420539	0.6267	-0.468793	0.141937	1.00711	1.5708	0	0	0.536345	-0.431509	0.10606	1.2957	1.1239	0	0
0.67	-3.09325	1.35804	-1.55154	0.848302	-0.124255	0.918851	0.164763	-0.0258979	-0.306552	0.0745992	0.0770957	0	0	-0.448362	-0.00317	-0.256007	0.207113	0.24692	0	0	-0.302117	-0.0187217	-0.0076552	0.627622	-0.483232	0.266094	1.02895	1.07191	0	0	0.526647	-0.431302	0.0984556	1.29836	1.09091	0	0
0.68	-3.1064	1.35635	-1.52835	0.847934	-0.112244	0.917295	0.161984	-0.0256911	-0.330315	0.109446	0.101465	0	0	-0.459675	-0.0135127	-0.251189	0.215125	0.252561	0	0	-0.299777	-0.0111224	-0.0191829	0.628144	-0.481486	0.264551	1.02616	1.09838	0	0	0.518453	-0.428809	0.0891481	1.30042	1.09861	0	0
0.69	-3.14149	1.35501	-1.487	0.848215	-0.100453	0.916021	0.153797	-0.0143638	-0.333532	0.116449	0.107253	0	0	-0.464982	-0.0279466	-0.236653	0.241595	0.2591	0	0	-0.298356	0.000256168	-0.0257582	0.629737	-0.468511	0.174907	1.00706	1.4979	0	0	0.510917	-0.425585	0.0787183	1.30329	1.11574	0	0
0.7	3.10596	1.35134	-1.4415	0.848783	-0.0883131	0.915423	0.130987	0.00362405	-0.314902	0.0885366	0.0684828	0	0	-0.473722	-0.0491869	-0.25936	0.249534	0.263859	0	0	-0.297994	0.0123495	-0.0338596	0.625972	-0.464467	0.153276	1.00863	1.5708	0	0	0.504429	-0.422766	0.0695196	1.3041	1.13257	0	0
0.71	3.0729	1.34974	-1.40291	0.849861	-0.0766182	0.914704	0.117379	0.0180773	-0.301324	0.0730093	0.0126125	0	0	-0.474094	-0.0678908	-0.266059	0.276198	0.266807	0	0	-0.297427	0.0230178	-0.0386179	0.622569	-0.462275	0.149125	1.01292	1.5708	0	0	0.498108	-0.421284	0.0608701	1.30653	1.13903	0	0
0.72	3.04898	1.34888	-1.37476	0.851249	-0.0647766	0.914027	0.111874	0.026489	-0.30475	0.0763416	-0.0351998	0	0	-0.471535	-0.0851207	-0.271853	0.307038	0.265647	0	0	-0.296082	0.0304815	-0.0420737	0.61821	-0.459716	0.144435	1.0174	1.5708	0	0	0.492173	-0.421523	0.0556868	1.31008	1.13767	0	0
0.73	3.02698	1.347	-1.3491	0.852744	-0.0526923	0.913603	0.109191	0.0331	-0.313748	0.0921611	-0.068572	0	0	-0.466738	-0.103927	-0.279092	0.344922	0.262755	0	0	-0.294951	0.0372121	-0.0450639	0.614065	-0.457223	0.141112	1.02089	1.5708	0	0	0.485938	-0.422727	0.0526109	1.31394	1.1386	0	0
0.74	3.00768	1.34345	-1.3266	0.854164	-0.0404874	0.91362	0.107713	0.0379006	-0.324925	0.118329	-0.0869573	0	0	-0.460442	-0.123721	-0.28514	0.388532	0.255798	0	0	-0.295193	0.0437798	-0.0477313	0.610986	-0.455403	0.140088	1.02287	1.5708	0	0	0.479576	-0.424062	0.0507635	1.31766	1.13803	0	0
0.75	2.98557	1.33824	-1.30243	0.855653	-0.0283352	0.914152	0.104468	0.0435522	-0.333741	0.14539	-0.0995996	0	0	-0.45101	-0.146191	-0.291005	0.439599	0.242209	0	0	-0.297268	0.0515491	-0.048881	0.608708	-0.454591	0.140334	1.02423	1.5708	0	0	0.47356	-0.42498	0.048581	1.32065	1.13843	0	0
0.76	2.95582	1.33365	-1.27279	0.85749	-0.0164553	0.914833	0.103478	0.051271	-0.33974	0.174392	-0.103917	0	0	-0.433873	-0.172693	-0.299094	0.500649	0.217811	0	0	-0.299231	0.0606404	-0.0473359	0.607723	-0.455796	0.13952	1.02569	1.5708	0	0	0.467794	-0.425099	0.0460137	1.32406	1.13795	0	0
0.77	2.92706	1.3288	-1.2475	0.85974	-0.00469578	0.915699	0.0991496	0.0607878	-0.341086	0.19517	-0.103969	0	0	-0.412902	-0.198562	-0.302855	0.566321	0.183101	0	0	-0.301569	0.0687164	-0.0414136	0.60438	-0.4561	0.142152	1.02911	1.5708	0	0	0.463884	-0.42439	0.0450355	1.32596	1.13926	0	0
0.78	2.89841	1.32768	-1.2236	0.862194	0.00678373	0.916146	0.102526	0.0669904	-0.349598	0.224064	-0.0917858	0	0	-0.381376	-0.224277	-0.303138	0.639105	0.134656	0	0	-0.30064	0.0751596	-0.0349278	0.60259	-0.457375	0.144431	1.03223	1.5708	0	0	0.458947	-0.423899	0.0428593	1.33011	1.13992	0	0
0.79	2.87843	1.32819	-1.20805	0.864552	0.018059	0.916425	0.107214	0.069424	-0.360479	0.254035	-0.0752727	0	0	-0.344516	-0.245466	-0.293417	0.712077	0.0756263	0	0	-0.298973	0.0787605	-0.0293175	0.601685	-0.458722	0.147501	1.03481	1.5708	0	0	0.453833	-0.424061	0.0390901	1.33531	1.14272	0	0
0.8	2.86018	1.32929	-1.19311	0.866747	0.0291325	0.916566	0.11054	0.0723276	-0.366674	0.2804	-0.0628178	0	0	-0.303451	-0.26439	-0.276657	0.784209	0.00859374	0	0	-0.297111	0.081794	-0.0250354	0.601758	-0.46072	0.151819	1.03731	1.5708	0	0	0.449005	-0.425271	0.0360311	1.34137	1.14173	0	0
0.81	2.84113	1.3283	-1.17629	0.868803	0.0400543	0.916804	0.107636	0.0789701	-0.365072	0.297407	-0.0549603	0	0	-0.262608	-0.283141	-0.256678	0.854381	-0.0567125	0	0	-0.297585	0.0858643	-0.0210668	0.60249	-0.463866	0.156196	1.04036	1.5708	0	0	0.445889	-0.427335	0.035549	1.34713	1.14198	0	0
0.82	2.82599	1.32681	-1.16183	0.870575	0.0506593	0.917084	0.103234	0.084891	-0.363459	0.313271	-0.0450497	0	0	-0.220861	-0.298957	-0.232954	0.922558	-0.112973	0	0	-0.299483	0.0895651	-0.0180727	0.603642	-0.467762	0.160119	1.04397	1.5708	0	0	0.444844	-0.430106	0.038038	1.35221	1.13779	0	0
0.83	2.82014	1.32463	-1.156	0.872115	0.0608184	0.917712	0.0972597	0.0884929	-0.361578	0.328948	-0.0322443	0	0	-0.180782	-0.308882	-0.206912	0.985296	-0.144756	0	0	-0.304066	0.0915563	-0.0151136	0.605188	-0.47207	0.164355	1.04745	1.5708	0	0	0.446135	-0.432665	0.0412801	1.35609	1.13209	0	0
0.84	2.82745	1.32053	-1.16351	0.87345	0.0707642	0.918981	0.086021	0.0901454	-0.35768	0.340318	-0.019632	0	0	-0.14618	-0.311482	-0.180716	1.03889	-0.151986	0	0	-0.3117	0.0911954	-0.0113141	0.606218	-0.475218	0.162579	1.05053	1.5708	0	0	0.449533	-0.433539	0.0449959	1.35775	1.13195	0	0
0.85	2.84665	1.31719	-1.18208	0.874612	0.0803569	0.920653	0.0742444	0.0879861	-0.355199	0.351255	-0.00740206	0	0	-0.111459	-0.306644	-0.152191	1.08818	-0.142511	0	0	-0.320351	0.0873584	-0.00815999	0.606516	-0.477283	0.159444	1.05279	1.5708	0	0	0.454333	-0.433576	0.0496825	1.35841	1.13101	0	0
0.86	2.87096	1.31537	-1.20551	0.875697	0.0897835	0.9225	0.0627824	0.0838793	-0.353273	0.360741	0.00371317	0	0	-0.0748776	-0.297261	-0.12273	1.13671	-0.118258	0	0	-0.327684	0.0811538	-0.00552985	0.606348	-0.477953	0.154442	1.05317	1.5708	0	0	0.45921	-0.432593	0.0538268	1.35808	1.12976	0	0
0.87	2.89549	1.31397	-1.23045	0.876851	0.0992038	0.924554	0.0494023	0.0806023	-0.34853	0.365061	0.0122805	0	0	-0.0400981	-0.286027	-0.0967864	1.18031	-0.0861464	0	0	-0.333984	0.0740837	-0.00215729	0.606484	-0.478283	0.150647	1.0517	1.5708	0	0	0.463029	-0.430692	0.0563278	1.35665	1.12934	0	0
0.88	2.91659	1.31371	-1.25328	0.878058	0.108627	0.926621	0.0358575	0.0782141	-0.342825	0.365575	0.0196968	0	0	-0.00617579	-0.274027	-0.0748069	1.21792	-0.0524421	0	0	-0.338143	0.0671861	0.0018445	0.606894	-0.478933	0.149671	1.04975	1.5708	0	0	0.465647	-0.428273	0.0572412	1.35396	1.12962	0	0
